<?xml version="1.0" encoding="UTF-8"?>
<!DOCTYPE svg PUBLIC "-//W3C//DTD SVG 1.1//EN" "http://www.w3.org/Graphics/SVG/1.1/DTD/svg11.dtd">
<!-- Creator: CorelDRAW -->
<svg xmlns="http://www.w3.org/2000/svg" xml:space="preserve" width="16.1796mm" height="5.2018mm" style="shape-rendering:geometricPrecision; text-rendering:geometricPrecision; image-rendering:optimizeQuality; fill-rule:evenodd; clip-rule:evenodd"
viewBox="0 0 1.10615 0.355632"
 xmlns:xlink="http://www.w3.org/1999/xlink">
 <defs>
  <style type="text/css">
   <![CDATA[
    .fil1 {fill:none}
    .fil0 {fill:#005A9B}
    .fil2 {fill:#005A9B;fill-rule:nonzero}
   ]]>
  </style>
 </defs>
 <g id="Слой_x0020_1">
  <metadata id="CorelCorpID_0Corel-Layer"/>
  <g id="_66685776">
   <g>
    <path id="_66224464" class="fil0" d="M0.0162509 0.355632l0.12049 0c0.00894926,0 0.0162509,-0.00730162 0.0162509,-0.0162509l0 -0.12049c0,-0.00894926 -0.00730162,-0.0162509 -0.0162509,-0.0162509l-0.12049 0c-0.00894926,0 -0.0162509,0.00730162 -0.0162509,0.0162509l0 0.12049c0,0.00894926 0.00730162,0.0162509 0.0162509,0.0162509z"/>
    <path id="_65935560" class="fil0" d="M0.218891 0.152992l0.12049 0c0.00894926,0 0.016244,-0.00730162 0.0162509,-0.0162509l0 -0.12049c0,-0.00894926 -0.00730162,-0.0162509 -0.0162577,-0.0162509l-0.120483 0c-0.00894926,0 -0.0162509,0.00730162 -0.0162509,0.0162509l0 0.12049c0,0.00894926 0.00730162,0.0162509 0.0162509,0.0162509z"/>
    <line id="_66802720" class="fil1" x1="0.152992" y1="0.279136" x2="0.245137" y2= "0.279136" />
    <polygon id="_66686544" class="fil2" points="0.152992,0.273332 0.245144,0.273332 0.245144,0.284941 0.152992,0.284941 "/>
    <line id="_66801232" class="fil1" x1="0.076496" y1="0.112191" x2="0.076496" y2= "0.20264" />
    <polygon id="_66686832" class="fil2" points="0.0823004,0.112191 0.0823004,0.20264 0.0706917,0.20264 0.0706917,0.112191 "/>
    <line id="_66684168" class="fil1" x1="0.279136" y1="0.152992" x2="0.279136" y2= "0.243442" />
    <polygon id="_35468376" class="fil2" points="0.284941,0.152992 0.284941,0.243442 0.273332,0.243442 0.273332,0.152992 "/>
    <path id="_65771528" class="fil0" d="M0.218891 0.152992l0.12049 0c0.00894926,0 0.016244,-0.00730162 0.0162509,-0.0162509l0 -0.12049c0,-0.00894926 -0.00730162,-0.0162509 -0.0162577,-0.0162509l-0.120483 0c-0.00894926,0 -0.0162509,0.00730162 -0.0162509,0.0162509l0 0.12049c0,0.00894926 0.00730162,0.0162509 0.0162509,0.0162509z"/>
    <path id="_65770808" class="fil0" d="M0.284455 0.323903l0.0394479 -0.0394479c0.00293295,-0.00292612 0.00292612,-0.00770498 0,-0.0106379l-0.0394479 -0.0394479c-0.00292612,-0.00293295 -0.00771182,-0.00292612 -0.0106379,0l-0.0394479 0.0394479c-0.00293295,0.00293295 -0.00293295,0.00771182 0,0.0106379l0.0394479 0.0394479c0.00292612,0.00293295 0.00771182,0.00293295 0.0106379,0z"/>
    <path id="_63208448" class="fil0" d="M0.081815 0.121263l0.0394479 -0.0394479c0.00292612,-0.00292612 0.00292612,-0.00770498 0,-0.0106379l-0.0394479 -0.0394479c-0.00293295,-0.00293295 -0.00771182,-0.00293295 -0.0106448,0l-0.039441 0.0394479c-0.00293295,0.00292612 -0.00293295,0.00771182 0,0.0106379l0.039441 0.0394479c0.00293295,0.00293295 0.00771182,0.00293295 0.0106448,0z"/>
   </g>
   <path id="_65937768" class="fil2" d="M0.647123 0.0991187c0,0.0270324 -0.00948937,0.0497166 -0.028516,0.0680595 -0.0190266,0.0183361 -0.0425928,0.027511 -0.0707053,0.027511 -0.0280374,0 -0.0516104,-0.00917488 -0.0706301,-0.027511 -0.0190676,-0.0183429 -0.028598,-0.0410271 -0.028598,-0.0680595 0,-0.0270255 0.00953039,-0.0497098 0.028598,-0.0680527 0.0190198,-0.0183429 0.0425928,-0.027511 0.0706301,-0.027511 0.0281126,0 0.0516788,0.00916804 0.0707053,0.027511 0.0190266,0.0183429 0.028516,0.0410271 0.028516,0.0680527zm-0.0420663 0c0,-0.0158475 -0.0055104,-0.0292406 -0.016497,-0.0400974 -0.0110208,-0.0109046 -0.0245712,-0.0163329 -0.040658,-0.0163329 -0.0159296,0 -0.0294047,0.00546937 -0.0404255,0.0163739 -0.0109798,0.0109387 -0.0164902,0.0242498 -0.0164902,0.0400563 0,0.0157655 0.0055104,0.0290834 0.0164902,0.0399401 0.0110208,0.0108225 0.024496,0.0162509 0.0404255,0.0162509 0.0161688,0 0.0297602,-0.00542835 0.040699,-0.0162509 0.0109798,-0.0108567 0.016456,-0.0241746 0.016456,-0.0399401z"/>
   <path id="_659377681" class="fil2" d="M0.86907 0.131415c0,0.0198743 -0.00587274,0.0354005 -0.0176182,0.0465375 -0.0117455,0.0111439 -0.0283177,0.0167363 -0.0496756,0.0167363 -0.0115404,0 -0.0227253,-0.00209204 -0.0334999,-0.00623509 -0.0108225,-0.00418407 -0.019512,-0.00965345 -0.0261094,-0.0164902l0.020517 -0.0315788c0.00373968,0.00518907 0.00888773,0.00953722 0.0154031,0.0130718 0.00764345,0.00414305 0.0155262,0.00623509 0.0236892,0.00623509 0.00772549,0 0.0139196,-0.00220826 0.0186232,-0.00659743 0.00462846,-0.00417723 0.00695978,-0.00944834 0.00695978,-0.0159227 0,-0.0113831 -0.0113421,-0.0202298 -0.0340263,-0.026506 -0.0159706,-0.00438917 -0.027552,-0.0105832 -0.0347921,-0.0185412 -0.00719906,-0.0080058 -0.0108225,-0.018466 -0.0108225,-0.0314147 0,-0.0169756 0.00567448,-0.030731 0.0170166,-0.0413075 0.0113421,-0.0105764 0.0260206,-0.0158475 0.0440011,-0.0158475 0.0185412,0 0.0359953,0.00570866 0.0523282,0.0170918l-0.0185002 0.0308883c-0.00909284,-0.00880569 -0.0191496,-0.0132291 -0.0301704,-0.0132291 -0.00643335,0 -0.0117797,0.00164765 -0.0160458,0.00490876 -0.00430713,0.00325428 -0.00643335,0.00731529 -0.00643335,0.012183 0,0.00527111 0.00220826,0.00945518 0.00659743,0.0125932 0.00486091,0.00345938 0.0145554,0.00747937 0.0290766,0.0120258 0.0290014,0.00912702 0.0434815,0.0262598 0.0434815,0.0513984z"/>
   <path id="_6593776812" class="fil2" d="M1.1028 0.185036c-0.0153211,0.00643335 -0.029685,0.00965345 -0.0431192,0.00965345 -0.0281126,0 -0.0513574,-0.00905182 -0.0697414,-0.0271486 -0.0183839,-0.0181036 -0.027593,-0.0409109 -0.027593,-0.0684219 0,-0.0269435 0.00953039,-0.0496346 0.028639,-0.0680937 0.0188625,-0.0183019 0.041827,-0.0274699 0.0689415,-0.0274699 0.015239,0 0.0294389,0.00337734 0.0426338,0.010132l0 0.0485475c-0.0112259,-0.0130308 -0.025583,-0.0195462 -0.0431192,-0.0195462 -0.0156082,0 -0.02868,0.00527111 -0.0390924,0.0158475 -0.0104602,0.0105764 -0.0156903,0.0240926 -0.0156903,0.0405828 0,0.0169756 0.00523009,0.03069 0.0156903,0.0411092 0.010132,0.0102141 0.0231628,0.0153211 0.0390924,0.0153211 0.0167294,0 0.0311686,-0.00643335 0.0433585,-0.0193069l0 0.0487937z"/>
   <polygon id="_64871360" class="fil2" points="0.636526,0.26534 0.623351,0.295599 0.611777,0.295599 0.598582,0.26534 0.611832,0.26534 0.617568,0.281529 0.623351,0.26534 "/>
   <path id="_648713601" class="fil2" d="M0.678913 0.282801l-0.0223971 0c0,0.00164081 0.000423877,0.00302867 0.00127163,0.00417723 0.00101183,0.00136051 0.00246806,0.00203734 0.00434815,0.00203734 0.00252275,0 0.00416356,-0.000963977 0.0049156,-0.00290561l0.0107063 0.00203734c-0.00274836,0.00573601 -0.00810151,0.00860743 -0.0160458,0.00860743 -0.00531213,0 -0.00951671,-0.00157928 -0.0126001,-0.00474468 -0.00290561,-0.00299448 -0.00434815,-0.00685039 -0.00434815,-0.0115746 0,-0.0048404 0.00155877,-0.00875784 0.00467632,-0.011725 0.00311071,-0.00298081 0.00724692,-0.00446438 0.0124086,-0.00446438 0.00590009,0 0.010344,0.00185959 0.0133316,0.00559244 0.00248857,0.00308336 0.00373285,0.00696662 0.00373285,0.0116361l0 0.00132632zm-0.0114173 -0.00618723c-0.000123061,-0.00134683 -0.000642652,-0.0024954 -0.00155194,-0.00343887 -0.000991324,-0.00101867 -0.00222877,-0.00152459 -0.0037055,-0.00152459 -0.00302183,0 -0.0048404,0.00165449 -0.00544203,0.00496346l0.0106995 0z"/>
   <path id="_6487136012" class="fil2" d="M0.716433 0.265401l-0.000929794 0.0101115c-0.00107336,-0.000451223 -0.00232448,-0.000669998 -0.0037602,-0.000669998 -0.00220142,0 -0.00387642,0.000717855 -0.00501815,0.00215357 -0.0011349,0.00144255 -0.00170234,0.00339785 -0.00170234,0.0058659l0 0.0127368 -0.0124292 0 0 -0.0301978 0.0122035 0 0 0.0046353c0.00199632,-0.00352091 0.00483356,-0.00528478 0.00850488,-0.00528478 0.00093663,0 0.00198949,0.000211938 0.00313122,0.000649488z"/>
   <polygon id="_64871360123" class="fil2" points="0.766212,0.265401 0.744943,0.311221 0.732151,0.311221 0.740765,0.293876 0.725738,0.265401 0.739835,0.265401 0.746946,0.281413 0.753666,0.265401 "/>
   <path id="_648713601234" class="fil2" d="M0.826026 0.282801l-0.0223971 0c0,0.00164081 0.000423877,0.00302867 0.00127163,0.00417723 0.00101183,0.00136051 0.00246806,0.00203734 0.00434815,0.00203734 0.00252275,0 0.00416356,-0.000963977 0.0049156,-0.00290561l0.0107063 0.00203734c-0.00274836,0.00573601 -0.00810151,0.00860743 -0.0160458,0.00860743 -0.00531213,0 -0.00951671,-0.00157928 -0.0126001,-0.00474468 -0.00290561,-0.00299448 -0.00434815,-0.00685039 -0.00434815,-0.0115746 0,-0.0048404 0.00155877,-0.00875784 0.00467632,-0.011725 0.00311071,-0.00298081 0.00724692,-0.00446438 0.0124086,-0.00446438 0.00590009,0 0.010344,0.00185959 0.0133316,0.00559244 0.00248857,0.00308336 0.00373285,0.00696662 0.00373285,0.0116361l0 0.00132632zm-0.0114173 -0.00618723c-0.000123061,-0.00134683 -0.000642652,-0.0024954 -0.00155194,-0.00343887 -0.000991324,-0.00101867 -0.00222877,-0.00152459 -0.0037055,-0.00152459 -0.00302183,0 -0.0048404,0.00165449 -0.00544203,0.00496346l0.0106995 0z"/>
   <path id="_6487136012345" class="fil2" d="M0.874874 0.295599l-0.0119437 0 0 -0.00386958c-0.00209204,0.00334999 -0.00540101,0.00502499 -0.00991324,0.00502499 -0.00406785,0 -0.00749304,-0.0014904 -0.0102619,-0.00449172 -0.00284407,-0.00308336 -0.00425928,-0.00702815 -0.00425928,-0.0118275 0,-0.00495662 0.00140836,-0.00892875 0.00423193,-0.0119301 0.00267999,-0.00284407 0.00606417,-0.00425928 0.010173,-0.00425928 0.00420458,0 0.00744519,0.00159979 0.00972181,0.00479938l0 -0.00364397 0.0122514 0 0 0.0301978zm-0.0118412 -0.0151638c0,-0.00185275 -0.000567448,-0.00334999 -0.00170234,-0.00448489 -0.00114173,-0.00114173 -0.00257744,-0.00170918 -0.00431397,-0.00170918 -0.0018801,0 -0.00335683,0.000560611 -0.00444387,0.00168183 -0.0010802,0.00112806 -0.0016203,0.00263897 -0.0016203,0.00456009 0,0.00188693 0.000540101,0.00339101 0.0016203,0.00451907 0.00108704,0.00112806 0.00254326,0.00169551 0.00439601,0.00169551 0.00180489,0 0.00326795,-0.000567448 0.00438917,-0.00169551 0.00112122,-0.00112806 0.001675,-0.00265265 0.001675,-0.00456693z"/>
   <path id="_64871360123456" class="fil2" d="M0.915594 0.285659c0,0.00284407 -0.001005,0.00525744 -0.00300132,0.00723325 -0.00259112,0.00257061 -0.00652907,0.00386275 -0.0118002,0.00386275 -0.00492244,0 -0.00909284,-0.0010802 -0.012518,-0.00324744l0.00358928 -0.00813569c0.0027005,0.00183908 0.00543519,0.00276203 0.00822457,0.00276203 0.00212622,0 0.00319275,-0.000567448 0.00319275,-0.00169551 0,-0.000772549 -0.000321326,-0.00134 -0.000950304,-0.00171602 -0.000635815,-0.00037602 -0.00178438,-0.000711019 -0.00345938,-0.000991324 -0.00598897,-0.00101183 -0.00898345,-0.00392428 -0.00898345,-0.00872365 0,-0.00322693 0.00122377,-0.00579754 0.00367132,-0.007746 0.00252275,-0.00201683 0.00596846,-0.00301499 0.0103371,-0.00301499 0.00393111,0 0.00747937,0.000786223 0.0106516,0.00237234l-0.00324744 0.00728794c-0.00207153,-0.00107336 -0.00408152,-0.00161347 -0.00602315,-0.00161347 -0.00231765,0 -0.00347305,0.000581121 -0.00347305,0.00172969 0,0.000731529 0.00047857,0.00129214 0.00143571,0.00168183 0.000683672,0.000293979 0.00196897,0.000574284 0.00384907,0.00085459 0.00293979,0.000451223 0.00513438,0.00158612 0.00661111,0.00341836 0.00126479,0.0015451 0.00189377,0.00343203 0.00189377,0.00568131z"/>
   <polygon id="_648713601234567" class="fil2" points="0.96622,0.265401 0.944951,0.311221 0.932159,0.311221 0.940773,0.293876 0.925746,0.265401 0.939844,0.265401 0.946954,0.281413 0.953674,0.265401 "/>
   <path id="_6487136012345678" class="fil2" d="M1.00652 0.255399c0,0.0018254 -0.000615305,0.00334999 -0.00184591,0.00455325 -0.00123745,0.00120326 -0.00279622,0.00180489 -0.00467632,0.00180489 -0.0018801,0 -0.00343203,-0.000601631 -0.00464897,-0.00180489 -0.00121694,-0.00120326 -0.0018254,-0.00272785 -0.0018254,-0.00455325 0,-0.00179806 0.000608468,-0.00331581 0.00183224,-0.00451907 0.00122377,-0.00120326 0.00277571,-0.00180489 0.00464213,-0.00180489 0.00185959,0 0.00341836,0.000601631 0.00466264,0.00180489 0.00124428,0.00120326 0.00185959,0.00272101 0.00185959,0.00451907zm-0.000287142 0.0555962l-0.0124292 0 0 -0.0455941 0.0124292 0 0 0.0455941z"/>
   <path id="_64871360123456789" class="fil2" d="M1.05626 0.280435c0,0.00462846 -0.00166132,0.0084912 -0.00497713,0.0115746 -0.00341836,0.0031654 -0.00784855,0.00474468 -0.0132769,0.00474468 -0.00543519,0 -0.00987222,-0.00157928 -0.0132974,-0.00474468 -0.00331581,-0.00308336 -0.00497029,-0.00694611 -0.00497029,-0.0115746 0,-0.00462162 0.00165449,-0.00843651 0.00497029,-0.0114789 0.0034252,-0.00314489 0.00786223,-0.0047105 0.0132974,-0.0047105 0.00542835,0 0.00985855,0.00156561 0.0132769,0.0047105 0.00331581,0.00304234 0.00497713,0.00685723 0.00497713,0.0114789zm-0.0126821 0c0,-0.00155877 -0.000492244,-0.0028851 -0.00146306,-0.00402683 -0.00105969,-0.00123745 -0.00242704,-0.00185959 -0.00410887,-0.00185959 -0.00166816,0 -0.00304234,0.000622141 -0.00412254,0.00185959 -0.000977651,0.00114173 -0.00146989,0.00246806 -0.00146989,0.00402683 0,0.00157928 0.000492244,0.00293979 0.00147673,0.00409519 0.0010802,0.00124428 0.00246806,0.00185959 0.00414305,0.00185959 0.00168867,0 0.00305601,-0.000615305 0.00410203,-0.00185959 0.000963977,-0.00115541 0.00144255,-0.00251591 0.00144255,-0.00409519z"/>
   <path id="_6487136012345678910" class="fil2" d="M1.10615 0.280565c0,0.00475836 -0.00143571,0.00866896 -0.00431397,0.0117523 -0.00276887,0.0029603 -0.00619407,0.00443703 -0.0102619,0.00443703 -0.00436866,0 -0.00768447,-0.00169551 -0.00994059,-0.00507968l0 0.00392428 -0.0118617 0 0 -0.0457035 0.0124292 0 0 0.0136461c0,0.000355509 -7.52039e-005,0.00218775 -0.000218775,0.00550356 0.00246806,-0.00319958 0.00568815,-0.00479938 0.00966028,-0.00479938 0.00409519,0 0.00750672,0.00142204 0.0102209,0.00428662 0.00286459,0.0030355 0.00428662,0.00704866 0.00428662,0.0120326zm-0.0124838 -0.000129898c0,-0.00189377 -0.000540101,-0.00337734 -0.0016203,-0.00448489 -0.00108704,-0.00110071 -0.00257744,-0.00164765 -0.00445754,-0.00164765 -0.001675,0 -0.00308336,0.000546937 -0.00423193,0.00164765 -0.00114173,0.00110755 -0.00172285,0.00248857 -0.00172285,0.00414305l0 0.000533264c0,0.0018801 0.000540101,0.00336367 0.0016203,0.0044507 0.00108704,0.0010802 0.00253642,0.0016203 0.00433448,0.0016203 0.00190061,0 0.00339785,-0.000546937 0.00446438,-0.00164765 0.00107336,-0.00110755 0.00161347,-0.00263897 0.00161347,-0.00461478z"/>
   <g>
    <polygon id="_43689224" class="fil2" points="0.578462,0.285125 0.323903,0.285125 0.323903,0.273776 0.578462,0.273776 "/>
   </g>
  </g>
 </g>
</svg>
